<svg xmlns="http://www.w3.org/2000/svg" viewBox="0 0 24 24" width="24" height="24">
  <defs>
    <linearGradient id="metaGrad" x1="0%" y1="0%" x2="100%" y2="100%">
      <stop offset="0%" stop-color="#0064E0" />
      <stop offset="50%" stop-color="#0080FB" />
      <stop offset="100%" stop-color="#00C6FF" />
    </linearGradient>
  </defs>
  <path fill="url(#metaGrad)" fill-rule="evenodd" clip-rule="evenodd" d="M15.53 7.828c-1.396 0-2.652.74-3.372 1.86l-1.22 1.897a2.38 2.38 0 01-1.986 1.102 2.38 2.38 0 01-1.987-1.102l-1.22-1.897C5.025 8.568 3.769 7.828 2.373 7.828A3.832 3.832 0 000 11.66c0 2.115 1.722 3.832 3.832 3.832 1.396 0 2.652-.74 3.372-1.86l1.22-1.897c.45-.698 1.25-1.102 1.986-1.102.736 0 1.536.404 1.987 1.102l1.22 1.897c.72 1.12 1.976 1.86 3.372 1.86A3.832 3.832 0 0020.9 11.66c0-2.115-1.722-3.832-3.832-3.832zm0 6.13a2.3 2.3 0 01-1.986-1.102l-1.22-1.897c-.45-.698-1.25-1.102-1.987-1.102-.736 0-1.536.404-1.986 1.102l-1.22 1.897A2.3 2.3 0 015.158 13.96a2.3 2.3 0 01-1.986-1.102 2.3 2.3 0 011.986-3.51c.736 0 1.536.404 1.987 1.102l1.22 1.897c.45.698 1.25 1.102 1.986 1.102.736 0 1.536-.404 1.987-1.102l1.22-1.897a2.3 2.3 0 01-1.986-1.102c1.27 0 2.3 1.03 2.3 2.3s-1.03 2.3-2.3 2.3z" />
</svg>